<?xml version="1.0" standalone="no"?>
<!DOCTYPE svg PUBLIC "-//W3C//DTD SVG 20010904//EN"
 "http://www.w3.org/TR/2001/REC-SVG-20010904/DTD/svg10.dtd">
<svg version="1.0" xmlns="http://www.w3.org/2000/svg"
 width="4096.000000pt" height="4096.000000pt" viewBox="0 0 4096.000000 4096.000000"
 preserveAspectRatio="xMidYMid meet">
<metadata>
Created by potrace 1.14, written by Peter Selinger 2001-2017
</metadata>
<g transform="translate(0.000000,4096.000000) scale(0.100000,-0.100000)"
fill="#000000" stroke="none">
<path d="M10164 33801 c-165 -65 -259 -141 -318 -258 -69 -137 -66 -96 -66
-1067 l0 -876 -622 5 c-343 3 -714 7 -824 10 -231 6 -271 -2 -419 -78 -116
-61 -182 -130 -247 -264 l-53 -108 -3 -242 c-2 -181 -6 -243 -15 -243 -39 0
-1561 -162 -1603 -170 -66 -14 -185 -71 -250 -120 -65 -49 -137 -156 -173
-257 l-28 -78 13 -9885 c10 -8032 10 -9888 -1 -9900 -19 -22 8 -136 55 -238
70 -148 208 -251 421 -312 l77 -22 253 21 c1222 101 2667 118 3984 46 2223
-122 4077 -476 6400 -1222 1125 -361 2414 -850 3437 -1304 l247 -110 193 84
c1151 503 2740 1092 3968 1470 2279 704 3978 1015 6095 1117 1273 61 2827 14
3979 -120 l170 -20 75 20 c42 12 123 44 180 72 167 80 256 188 301 361 18 73
19 288 26 9993 7 9528 6 9922 -11 9974 -26 80 -81 187 -127 247 -52 69 -139
126 -241 159 -94 31 -33 29 -1075 43 -343 5 -626 11 -629 14 -3 3 5 151 17
328 l22 322 -41 81 c-74 149 -163 232 -311 288 l-85 32 -860 11 -860 10 -6
425 c-3 234 -7 619 -8 855 l-1 430 -34 77 c-45 103 -135 236 -197 292 -58 52
-146 97 -236 120 -52 14 -86 15 -235 6 -1264 -75 -2751 -421 -4073 -950 -1558
-622 -2958 -1489 -4095 -2535 -332 -306 -739 -737 -1006 -1066 -317 -391 -622
-845 -783 -1168 -35 -68 -66 -120 -70 -115 -4 5 -34 54 -66 109 -260 446 -713
1050 -1170 1565 -266 298 -745 769 -1060 1041 -691 596 -1457 1104 -2230 1480
-1731 840 -3801 1463 -5419 1629 -252 26 -276 25 -362 -9z m19886 -4361 l0
-3180 -1902 -2 -1903 -3 -5 -35 c-5 -33 -7 -35 -48 -38 l-43 -3 3 -77 3 -77
43 1 42 1 0 -912 0 -912 -67 -6 c-38 -4 -102 -7 -144 -7 -42 0 -117 -3 -167
-6 l-92 -7 0 -41 c0 -23 3 -58 7 -79 l6 -39 121 6 c67 4 169 9 229 12 l107 6
0 -2126 0 -2126 -55 0 -55 0 0 -80 0 -80 55 0 55 0 0 -1130 0 -1130 -85 0 -86
0 3 -77 3 -78 82 -3 82 -3 3 -67 3 -67 1903 -3 1902 -2 0 -983 0 -983 -127
-13 c-849 -83 -2047 -336 -2936 -620 -1432 -459 -2479 -1029 -3600 -1961 -381
-316 -658 -573 -1072 -991 -444 -449 -916 -981 -1170 -1317 l-40 -53 -2 38
c-4 62 -43 11694 -42 12428 1 369 3 662 6 653 2 -10 7 -18 11 -18 7 0 430 99
449 105 8 3 7 21 -4 72 -8 37 -18 72 -23 76 -4 4 -103 -15 -220 -43 -117 -27
-214 -50 -215 -50 -11 0 -15 423 -16 1703 l-1 1508 62 112 c174 311 489 798
745 1152 647 894 1401 1698 2165 2310 552 442 1104 792 1798 1139 216 108 505
246 516 246 2 0 1 -67 -2 -150 l-5 -150 82 0 81 0 0 83 c0 46 3 131 6 189 l7
104 186 76 c987 405 2108 716 3071 852 226 32 230 33 263 35 l27 1 0 -3180z
m-18830 3109 c1047 -127 2341 -517 3577 -1080 308 -140 1014 -499 1086 -551
18 -13 18 -33 8 -458 -33 -1344 -62 -3129 -81 -4890 -6 -525 -12 -955 -13
-956 -1 -2 -60 8 -131 22 -96 19 -131 22 -136 14 -4 -7 -13 -45 -20 -84 l-12
-72 -57 -13 c-184 -43 -465 -165 -636 -278 -542 -358 -877 -922 -946 -1592
-16 -160 -6 -462 20 -616 88 -501 301 -918 645 -1260 192 -190 408 -341 626
-436 55 -24 98 -44 96 -46 -2 -2 -226 37 -292 52 -19 4 -22 -2 -34 -70 -7 -42
-11 -78 -8 -80 4 -4 384 -79 447 -88 10 -1 19 17 28 62 7 36 15 66 17 68 1 2
49 -8 105 -21 56 -14 144 -31 195 -37 l93 -13 6 -515 c4 -284 10 -829 13
-1211 5 -666 5 -699 -14 -782 l-20 -86 23 -6 22 -6 7 -497 c3 -274 11 -768 16
-1098 9 -543 14 -827 36 -1963 l7 -353 -74 41 c-161 89 -595 303 -802 394
-832 369 -1800 679 -2818 900 -386 84 -887 173 -1171 207 l-98 12 0 4923 0
4923 33 -4 c17 -2 84 -6 148 -9 l116 -5 6 77 c3 42 4 78 2 80 -2 2 -70 7 -152
10 l-148 7 -3 3708 -2 3708 62 -6 c35 -4 137 -15 228 -26z m5085 -1877 c420
-262 823 -562 1234 -919 196 -170 712 -688 893 -895 583 -669 1117 -1462 1423
-2114 l55 -116 0 -509 c0 -280 -3 -509 -6 -509 -4 0 -65 18 -136 41 -72 22
-132 39 -134 36 -2 -2 -15 -35 -28 -74 l-24 -69 164 -54 164 -54 0 -3188 c0
-1753 -2 -3188 -4 -3188 -3 0 -266 73 -307 86 -12 3 -20 -12 -34 -71 -10 -41
-17 -76 -14 -79 2 -2 83 -26 179 -53 l175 -50 3 -1145 2 -1145 -187 53 c-103
30 -190 54 -193 54 -3 0 -15 -34 -26 -76 -15 -53 -18 -77 -10 -79 6 -2 102
-30 214 -61 l202 -57 0 -2521 0 -2521 -30 -539 c-16 -297 -31 -540 -32 -541
-2 -1 -50 50 -107 114 -383 429 -952 992 -1441 1427 -674 598 -1481 1204
-2077 1559 l-82 49 -5 80 c-3 45 -10 347 -16 671 -6 325 -15 842 -20 1150 -18
1020 -30 1788 -30 1946 l0 156 78 -18 c42 -10 82 -18 88 -19 15 0 50 139 38
150 -5 4 -53 18 -107 30 -54 12 -100 27 -102 33 -5 18 -25 2270 -20 2275 3 3
213 -41 252 -53 12 -4 51 141 41 151 -3 2 -68 18 -144 36 -132 29 -165 41
-152 53 3 3 64 12 136 20 168 19 296 47 441 97 743 256 1284 970 1418 1873 25
170 25 574 0 735 -38 240 -107 461 -206 658 -93 186 -182 311 -325 460 -49 50
-85 92 -80 92 5 0 90 -22 189 -50 99 -27 185 -50 191 -50 9 0 57 140 50 147
-5 5 -435 123 -449 123 -9 0 -17 -14 -22 -36 -3 -20 -11 -47 -16 -61 l-9 -25
-43 35 c-68 56 -226 156 -317 202 -251 126 -544 202 -852 221 l-108 7 0 86 c0
194 21 1916 24 1918 1 2 67 -13 146 -32 79 -20 148 -34 154 -32 10 3 48 138
41 146 -3 2 -80 22 -172 45 l-168 41 3 260 c1 143 7 544 12 890 10 592 14 836
40 2175 6 294 13 577 16 627 7 108 -14 109 169 -5z m-6529 -8212 c-6 -7324 -5
-7995 10 -8053 32 -126 125 -253 267 -365 l62 -49 175 -7 c855 -33 1821 -173
2640 -382 966 -247 1751 -574 2570 -1071 696 -422 1423 -974 2122 -1611 185
-168 688 -660 688 -673 0 -4 -64 29 -142 73 -707 396 -1655 857 -2423 1178
-1476 616 -2703 957 -4331 1205 -763 116 -1767 214 -2456 241 l-178 7 0 8749
0 8748 502 0 501 0 -7 -7990z m22450 5768 c-3 -1217 -9 -5131 -12 -8698 -3
-3567 -7 -6486 -9 -6488 -2 -2 -106 -12 -232 -23 -1645 -140 -3818 -540 -5148
-949 -1108 -341 -2373 -864 -3580 -1480 -181 -92 -393 -202 -469 -244 -77 -42
-141 -75 -142 -73 -8 7 370 399 532 552 948 896 1924 1573 2911 2021 1185 537
2793 945 4581 1163 150 18 170 23 247 60 144 70 213 159 249 319 23 101 22
-31 51 8402 14 4007 28 7367 32 7468 l5 182 495 0 494 0 -5 -2212z m1984 1005
c-8 -2322 -88 -18365 -93 -18369 -3 -3 -88 1 -189 10 -571 50 -1130 70 -1948
70 -813 0 -1342 -18 -2040 -69 -1226 -90 -2674 -292 -4390 -610 -457 -85 -429
-82 -340 -39 119 57 553 238 825 344 1012 395 1977 686 2877 869 1043 213
2404 361 3663 400 268 8 271 9 348 39 111 43 211 105 277 173 65 65 135 192
169 303 l21 68 0 3322 c0 1828 3 5645 7 8484 l6 5162 404 0 403 0 0 -157z
m-26600 100 c0 -21 -9 -526 -21 -1123 -20 -1073 -20 -1161 -9 -8165 7 -3894
15 -7224 18 -7401 l7 -321 52 -106 c87 -173 185 -254 373 -306 77 -22 175 -33
460 -51 422 -28 1098 -98 1605 -166 1424 -192 2620 -464 4230 -960 572 -177
1793 -589 1781 -601 -2 -3 -73 9 -158 26 -1572 313 -3588 616 -4888 735 -1236
114 -2575 128 -3730 40 -319 -24 -603 -55 -639 -70 l-34 -14 6 3177 c4 1748 9
5374 12 8058 3 2684 8 5421 11 6083 l6 1202 459 0 459 0 0 -37z m22440 -4438
l0 -1125 -815 0 -815 0 2 -2167 3 -2168 813 4 812 3 0 -1066 0 -1066 -1785 0
-1785 0 0 4348 c0 2392 3 4352 7 4355 3 4 807 7 1785 7 l1778 0 0 -1125z
m-13825 -595 c324 -36 602 -133 850 -297 128 -85 335 -290 422 -418 121 -179
200 -353 253 -557 46 -178 61 -288 67 -498 8 -308 -26 -545 -119 -827 -215
-651 -671 -1117 -1260 -1287 -97 -28 -270 -56 -345 -56 l-50 0 -6 503 c-4 276
-7 678 -7 893 l0 390 31 30 c49 46 72 101 72 169 0 68 -23 123 -72 169 l-31
30 0 341 c0 188 3 585 7 883 l6 542 46 0 c25 0 87 -5 136 -10z m-431 -882 l-7
-882 -29 -24 c-96 -81 -96 -253 0 -334 l29 -24 7 -893 7 -893 -58 6 c-349 42
-739 232 -1017 496 -408 387 -636 931 -636 1515 0 854 498 1564 1280 1825 122
40 324 85 403 89 l29 1 -8 -882z m14256 -1813 l0 -1925 -695 0 -695 0 0 1925
0 1925 695 0 695 0 0 -1925z m-11653 -11401 c-3 -3 -12 -4 -19 -1 -8 3 -5 6 6
6 11 1 17 -2 13 -5z"/>
<path d="M26317 30743 c-4 -37 -7 -145 -7 -239 l0 -171 72 -6 c40 -4 76 -3 79
1 4 4 9 112 11 240 l4 232 -47 0 c-26 0 -60 3 -76 6 l-30 6 -6 -69z"/>
<path d="M26297 29728 c-4 -66 -7 -174 -7 -240 l0 -118 78 0 79 0 6 232 c3
128 3 236 1 240 -3 4 -38 8 -78 8 l-73 0 -6 -122z"/>
<path d="M26287 28883 c-4 -3 -7 -111 -7 -240 l0 -233 80 0 80 0 0 240 0 240
-73 0 c-41 0 -77 -3 -80 -7z"/>
<path d="M26290 27690 l0 -240 80 0 80 0 0 240 0 240 -80 0 -80 0 0 -240z"/>
<path d="M26373 26973 l-71 -4 5 -232 c3 -128 9 -236 13 -240 4 -5 40 -5 79
-1 l71 7 0 132 c0 156 -11 346 -19 343 -3 -1 -38 -4 -78 -5z"/>
<path d="M25372 26132 l-183 -15 6 -76 c4 -42 9 -78 11 -80 2 -2 93 3 201 13
109 9 216 16 237 16 l39 0 -7 53 c-3 28 -6 64 -6 80 0 26 -1 27 -57 26 -32 -1
-140 -9 -241 -17z"/>
<path d="M24485 26039 c-121 -15 -226 -28 -234 -28 -11 -1 -12 -16 -6 -78 4
-43 8 -79 9 -80 3 -3 466 54 470 58 5 4 -11 151 -16 154 -2 1 -102 -11 -223
-26z"/>
<path d="M23502 25905 c-112 -18 -206 -36 -209 -39 -6 -6 11 -145 19 -150 2
-2 108 13 236 33 l233 36 -6 45 c-15 109 -15 110 -44 109 -14 -1 -117 -16
-229 -34z"/>
<path d="M22650 25755 c-178 -40 -300 -72 -307 -78 -6 -6 27 -129 38 -141 4
-4 83 10 176 32 92 23 194 46 226 53 51 11 58 15 53 33 -2 12 -10 47 -16 79
-6 31 -14 57 -18 56 -4 0 -72 -15 -152 -34z"/>
<path d="M21643 25477 c-116 -34 -214 -65 -218 -68 -6 -7 24 -128 35 -142 6
-7 422 106 448 122 14 8 -26 151 -42 150 -6 0 -106 -29 -223 -62z"/>
<path d="M25015 24116 c-176 -19 -200 -23 -199 -38 0 -10 1 -39 2 -65 4 -81
-9 -78 251 -52 l231 23 0 25 c0 14 -3 50 -6 79 l-7 52 -36 -1 c-20 -1 -126
-11 -236 -23z"/>
<path d="M24115 24009 c-115 -16 -221 -31 -234 -34 -24 -6 -25 -14 -5 -130 l5
-31 232 33 c128 17 234 32 236 32 6 1 -11 146 -18 152 -3 3 -100 -7 -216 -22z"/>
<path d="M23142 23860 c-123 -21 -226 -40 -228 -43 -4 -3 2 -41 21 -133 5 -21
6 -21 237 18 128 21 233 40 235 41 7 7 -24 151 -32 153 -6 1 -110 -15 -233
-36z"/>
<path d="M22195 23678 c-121 -28 -222 -52 -224 -54 -1 -1 5 -37 15 -79 15 -64
21 -76 36 -72 10 3 113 26 230 52 117 27 214 49 215 50 8 5 -32 155 -41 154
-6 -1 -110 -24 -231 -51z"/>
<path d="M25390 19770 c-58 -4 -131 -8 -164 -9 l-59 -1 7 -77 c4 -43 9 -79 11
-81 6 -6 460 20 465 27 3 3 4 39 2 79 l-4 72 -76 -2 c-42 -1 -124 -5 -182 -8z"/>
<path d="M24455 19692 c-126 -13 -233 -27 -236 -30 -7 -7 7 -141 15 -149 4 -4
399 34 444 43 19 4 22 11 21 47 0 23 -3 58 -7 77 l-7 36 -230 -24z"/>
<path d="M23470 19567 c-162 -25 -205 -35 -205 -47 0 -8 4 -43 9 -77 6 -49 12
-63 24 -63 46 1 450 66 452 73 1 4 -1 39 -5 77 l-7 70 -32 -1 c-17 -1 -123
-15 -236 -32z"/>
<path d="M22710 19443 c-47 -8 -385 -85 -392 -89 -6 -4 26 -141 35 -150 3 -3
33 2 68 11 35 9 135 32 222 50 87 18 161 36 164 38 3 3 -1 38 -8 76 -13 77
-13 77 -89 64z"/>
<path d="M21615 19150 c-121 -37 -220 -71 -220 -76 0 -5 9 -40 19 -77 15 -53
23 -67 35 -64 160 44 441 134 441 140 0 19 -42 147 -48 146 -4 -1 -106 -32
-227 -69z"/>
<path d="M25420 17369 c-85 -4 -190 -7 -232 -8 l-78 -1 0 -67 c0 -38 4 -74 9
-81 7 -11 47 -12 207 -7 109 3 214 8 232 11 l32 5 0 74 c0 41 -3 75 -7 77 -5
2 -78 0 -163 -3z"/>
<path d="M24380 17294 c-123 -14 -225 -26 -227 -27 -5 -5 10 -135 16 -146 5
-7 76 -3 235 14 126 13 231 26 233 28 9 10 -10 157 -21 156 -6 -1 -112 -12
-236 -25z"/>
<path d="M23435 17172 c-126 -19 -232 -36 -233 -37 -4 -4 17 -147 22 -153 4
-3 392 53 444 64 23 5 24 7 17 67 -12 104 11 98 -250 59z"/>
<path d="M22655 17043 c-72 -16 -400 -96 -402 -97 -3 -2 35 -147 39 -152 3 -2
36 5 74 15 38 11 130 33 204 50 74 17 146 33 159 36 21 5 22 10 16 43 -3 20
-11 54 -16 75 -10 38 -20 42 -74 30z"/>
<path d="M26290 16710 l0 -240 80 0 80 0 0 240 0 240 -80 0 -80 0 0 -240z"/>
<path d="M21555 16741 c-121 -36 -220 -71 -220 -76 0 -31 40 -145 49 -142 6 2
109 33 228 68 120 35 218 68 218 72 0 19 -42 147 -48 146 -4 0 -106 -31 -227
-68z"/>
<path d="M26383 15992 l-73 -3 1 -57 c1 -31 6 -138 13 -237 l11 -180 74 2 c40
1 76 5 79 7 7 8 -18 460 -26 466 -4 3 -40 4 -79 2z"/>
<path d="M26413 15033 c-28 -4 -33 -8 -33 -30 0 -25 41 -446 44 -450 3 -3 147
15 152 20 2 2 -6 108 -18 236 l-23 231 -45 -2 c-25 0 -60 -3 -77 -5z"/>
<path d="M11196 27433 c-3 -21 -6 -57 -6 -80 0 -34 4 -43 18 -43 9 0 105 -9
212 -20 107 -11 205 -20 217 -20 24 0 30 19 35 105 l3 50 -215 22 c-283 29
-256 30 -264 -14z"/>
<path d="M12145 27294 c-4 -41 -5 -77 -3 -79 1 -2 106 -15 232 -30 177 -22
230 -25 236 -15 11 18 21 133 13 141 -6 5 -435 60 -464 59 -4 0 -10 -34 -14
-76z"/>
<path d="M13095 27174 c-4 -41 -5 -77 -3 -78 3 -4 436 -66 454 -66 10 0 40
149 32 155 -4 2 -450 65 -464 65 -7 0 -14 -30 -19 -76z"/>
<path d="M14056 27099 c-6 -20 -26 -142 -23 -144 11 -8 460 -75 465 -70 10 10
31 139 24 146 -4 3 -97 21 -207 39 -110 17 -212 34 -227 37 -18 4 -29 1 -32
-8z"/>
<path d="M14988 26871 c-8 -42 -13 -77 -13 -79 4 -5 459 -91 465 -87 7 5 34
145 29 149 -4 3 -222 47 -397 80 l-70 13 -14 -76z"/>
<path d="M11717 25105 c-13 -31 -8 -145 6 -145 6 0 110 -7 230 -16 120 -9 221
-13 225 -10 4 4 8 40 10 80 l4 73 -173 12 c-96 6 -201 15 -235 18 -51 5 -62 3
-67 -12z"/>
<path d="M12670 25013 c0 -16 -3 -51 -6 -78 l-6 -51 237 -22 c131 -13 239 -21
240 -20 1 2 5 38 9 81 6 70 5 77 -12 77 -10 0 -105 9 -212 20 -256 26 -250 27
-250 -7z"/>
<path d="M13627 24933 c-3 -5 -7 -39 -8 -78 l-4 -69 229 -29 c126 -15 232 -25
236 -20 5 4 11 40 15 79 l7 70 -219 27 c-237 30 -250 31 -256 20z"/>
<path d="M14577 24798 c-11 -47 -19 -138 -12 -138 4 0 109 -16 233 -35 123
-20 226 -34 228 -32 6 5 27 147 23 151 -2 2 -96 18 -209 35 -113 18 -217 34
-231 37 -22 4 -28 1 -32 -18z"/>
<path d="M11136 20839 c-3 -13 -8 -49 -11 -80 l-6 -57 43 -5 c116 -16 429 -49
432 -46 2 2 7 38 11 79 l7 76 -204 23 c-111 12 -217 25 -235 28 -28 4 -33 2
-37 -18z"/>
<path d="M12085 20708 c-3 -18 -6 -53 -8 -77 l-2 -45 205 -27 c113 -15 219
-28 236 -28 l31 -1 7 71 c4 39 4 75 -1 79 -7 6 -408 61 -445 60 -11 0 -19 -11
-23 -32z"/>
<path d="M13036 20586 c-20 -117 -19 -125 5 -130 50 -12 441 -67 445 -63 6 5
24 106 24 132 0 21 -9 23 -157 45 -87 12 -193 28 -235 35 l-76 12 -6 -31z"/>
<path d="M13986 20449 c-19 -83 -23 -131 -12 -135 15 -5 431 -74 448 -74 10 0
18 22 26 73 6 39 8 75 4 78 -4 3 -97 21 -207 39 -110 17 -212 34 -227 37 -22
4 -28 1 -32 -18z"/>
<path d="M11065 18319 c-4 -39 -3 -74 1 -78 12 -10 453 -55 461 -47 10 10 24
140 15 147 -7 7 -392 49 -443 49 -26 0 -27 -3 -34 -71z"/>
<path d="M12027 18283 c-3 -5 -8 -41 -12 -80 -6 -58 -4 -73 6 -73 8 -1 113
-14 234 -29 121 -16 221 -27 223 -26 6 6 23 147 18 152 -3 4 -433 62 -463 63
-1 0 -4 -3 -6 -7z"/>
<path d="M12977 18156 c-7 -17 -20 -146 -16 -146 2 0 108 -16 234 -34 127 -19
231 -33 232 -32 6 5 24 148 20 153 -3 2 -97 18 -209 34 -111 15 -215 31 -230
33 -16 3 -28 0 -31 -8z"/>
<path d="M13925 18017 c-5 -15 -23 -141 -21 -144 3 -3 437 -73 456 -73 15 0
20 12 26 63 5 34 9 68 9 76 0 13 -88 30 -428 84 -25 4 -39 2 -42 -6z"/>
<path d="M14861 17807 c-13 -77 -14 -97 -2 -97 4 0 104 -18 221 -40 117 -22
218 -40 225 -40 14 0 41 138 29 150 -5 4 -99 24 -209 44 -110 20 -212 39 -226
42 -26 5 -27 3 -38 -59z"/>
<path d="M16853 26438 c-11 -40 -19 -74 -19 -75 3 -3 443 -123 453 -123 5 0
19 34 30 75 11 41 19 75 18 75 -2 0 -101 27 -221 60 -120 33 -223 60 -230 60
-6 0 -20 -33 -31 -72z"/>
<path d="M17776 26180 c-10 -39 -17 -73 -14 -75 11 -11 444 -133 450 -127 3 4
15 38 26 75 15 49 17 69 9 72 -52 18 -427 125 -439 125 -9 0 -20 -24 -32 -70z"/>
<path d="M18715 25968 c-25 -69 -44 -132 -41 -136 4 -4 443 -142 452 -142 9 0
45 143 37 150 -6 6 -262 88 -426 136 -9 3 -19 -1 -22 -8z"/>
<path d="M18306 23906 c-23 -78 -29 -106 -23 -106 2 0 105 -29 227 -65 123
-36 224 -64 225 -63 10 13 43 144 37 149 -4 4 -107 36 -229 71 l-223 65 -14
-51z"/>
<path d="M19235 23668 c-3 -7 -13 -41 -24 -75 l-19 -62 86 -27 c75 -23 288
-89 348 -108 20 -6 24 1 47 68 l25 75 -91 30 c-132 43 -353 111 -361 111 -4 0
-9 -6 -11 -12z"/>
<path d="M16800 19858 c-6 -24 -15 -58 -20 -75 -8 -33 -8 -33 43 -47 115 -33
396 -106 404 -106 12 0 47 140 37 150 -8 6 -429 120 -446 120 -4 0 -12 -19
-18 -42z"/>
<path d="M17735 19646 c-11 -32 -36 -139 -33 -141 7 -7 451 -125 455 -122 8 8
41 142 37 147 -3 3 -107 33 -231 66 -147 40 -226 57 -228 50z"/>
<path d="M18645 19343 c-9 -32 -18 -66 -21 -75 -3 -10 -3 -18 0 -18 3 0 103
-27 223 -60 120 -33 223 -58 229 -56 12 5 49 134 41 143 -7 7 -425 123 -443
123 -7 0 -20 -26 -29 -57z"/>
<path d="M16732 17392 c-12 -42 -20 -77 -19 -78 6 -7 453 -121 458 -118 8 5
43 144 38 148 -2 2 -92 26 -199 55 -107 28 -209 55 -226 60 l-31 9 -21 -76z"/>
<path d="M17677 17213 c-8 -15 -40 -143 -36 -147 2 -2 100 -29 218 -60 117
-32 219 -60 226 -62 8 -4 19 20 33 72 12 43 21 79 19 80 -1 0 -98 27 -216 59
-118 31 -220 59 -227 62 -6 2 -14 1 -17 -4z"/>
<path d="M18582 16894 c-12 -43 -21 -79 -19 -79 15 -11 452 -123 457 -118 14
16 42 135 33 143 -4 4 -102 33 -218 65 -115 32 -215 60 -221 62 -7 2 -20 -27
-32 -73z"/>
</g>
</svg>
